<svg width="98" height="98" viewBox="0 0 98 98" fill="none" xmlns="http://www.w3.org/2000/svg">
<path d="M23.8875 69.8251C27.3583 67.1709 31.2375 65.0782 35.525 63.547C39.8125 62.0157 44.3041 61.2501 49 61.2501C53.6958 61.2501 58.1875 62.0157 62.475 63.547C66.7625 65.0782 70.6416 67.1709 74.1125 69.8251C76.4944 67.0348 78.3489 63.8702 79.676 60.3313C81.0031 56.7924 81.6666 53.0154 81.6666 49.0001C81.6666 39.9487 78.485 32.2414 72.1218 25.8782C65.7586 19.515 58.0513 16.3334 49 16.3334C39.9486 16.3334 32.2413 19.515 25.8781 25.8782C19.5149 32.2414 16.3333 39.9487 16.3333 49.0001C16.3333 53.0154 16.9968 56.7924 18.3239 60.3313C19.651 63.8702 21.5055 67.0348 23.8875 69.8251ZM49 53.0834C44.9847 53.0834 41.5989 51.7053 38.8427 48.949C36.0864 46.1928 34.7083 42.807 34.7083 38.7917C34.7083 34.7765 36.0864 31.3907 38.8427 28.6345C41.5989 25.8782 44.9847 24.5001 49 24.5001C53.0152 24.5001 56.401 25.8782 59.1573 28.6345C61.9135 31.3907 63.2916 34.7765 63.2916 38.7917C63.2916 42.807 61.9135 46.1928 59.1573 48.949C56.401 51.7053 53.0152 53.0834 49 53.0834ZM49 89.8334C43.3513 89.8334 38.043 88.7615 33.075 86.6178C28.1069 84.474 23.7854 81.5647 20.1104 77.8897C16.4354 74.2147 13.526 69.8931 11.3823 64.9251C9.2385 59.957 8.16663 54.6487 8.16663 49.0001C8.16663 43.3515 9.2385 38.0431 11.3823 33.0751C13.526 28.107 16.4354 23.7855 20.1104 20.1105C23.7854 16.4355 28.1069 13.5261 33.075 11.3824C38.043 9.23862 43.3513 8.16675 49 8.16675C54.6486 8.16675 59.9569 9.23862 64.925 11.3824C69.893 13.5261 74.2145 16.4355 77.8895 20.1105C81.5646 23.7855 84.4739 28.107 86.6177 33.0751C88.7614 38.0431 89.8333 43.3515 89.8333 49.0001C89.8333 54.6487 88.7614 59.957 86.6177 64.9251C84.4739 69.8931 81.5646 74.2147 77.8895 77.8897C74.2145 81.5647 69.893 84.474 64.925 86.6178C59.9569 88.7615 54.6486 89.8334 49 89.8334Z" fill="#7B807C"/>
</svg>
